<?xml version="1.0" standalone="no"?>
<!DOCTYPE svg PUBLIC "-//W3C//DTD SVG 20010904//EN"
 "http://www.w3.org/TR/2001/REC-SVG-20010904/DTD/svg10.dtd">
<svg version="1.0" xmlns="http://www.w3.org/2000/svg"
 width="130.000000pt" height="130.000000pt" viewBox="0 0 130.000000 130.000000"
 preserveAspectRatio="xMidYMid meet">
<metadata>
Created by potrace 1.14, written by Peter Selinger 2001-2017
</metadata>
<g transform="translate(0.000000,500.000000) scale(0.100000,-0.100000)"
fill="#000000" stroke="none">
<path d="M2328 4685 c-2 -2 -30 -6 -63 -9 -130 -13 -153 -16 -245 -35 -129
-26 -229 -51 -270 -68 -8 -3 -17 -7 -20 -8 -66 -23 -215 -88 -231 -102 -8 -7
-19 -13 -24 -13 -10 0 -103 -61 -165 -108 -236 -177 -402 -462 -437 -749 -9
-65 -9 -300 0 -353 9 -60 39 -182 53 -215 7 -18 10 -35 7 -39 -4 -3 -1 -6 5
-6 7 0 12 -7 12 -15 0 -17 65 -142 86 -166 8 -8 14 -19 14 -22 0 -12 51 -69
145 -162 107 -106 218 -182 370 -255 122 -58 125 -59 210 -90 33 -13 69 -26
80 -31 11 -4 67 -22 125 -39 58 -17 114 -35 125 -40 18 -7 208 -54 265 -66 45
-9 344 -86 395 -101 186 -57 270 -96 364 -167 58 -44 141 -147 141 -175 0 -10
3 -21 7 -25 24 -24 23 -214 -2 -286 -34 -98 -111 -190 -210 -253 -27 -17 -53
-35 -56 -40 -3 -5 -10 -9 -15 -10 -5 0 -31 -10 -59 -22 -111 -49 -235 -70
-415 -69 -192 1 -275 14 -387 65 -190 85 -285 201 -422 517 -22 52 -56 122
-75 155 -37 65 -108 152 -104 127 2 -8 8 -20 15 -28 7 -7 10 -19 7 -26 -3 -8
-1 -17 4 -20 13 -8 15 -173 2 -181 -6 -3 -8 -11 -5 -16 4 -5 3 -15 -2 -22 -4
-6 -8 -14 -8 -17 -4 -38 -117 -180 -144 -180 -5 0 -15 -8 -20 -17 -6 -10 -11
-14 -11 -9 0 4 -11 1 -24 -7 -34 -23 -69 -30 -165 -33 -59 -2 -93 2 -113 12
-15 8 -28 12 -28 9 0 -2 -21 7 -47 21 -51 28 -156 132 -147 146 3 4 0 8 -5 8
-6 0 -11 9 -11 19 0 11 -4 21 -10 23 -5 2 -11 15 -12 31 -1 15 -8 27 -14 27
-15 0 -17 -138 -3 -197 4 -21 11 -54 14 -73 16 -94 75 -237 153 -370 24 -41
47 -77 50 -80 4 -3 18 -21 31 -40 38 -54 157 -181 237 -251 49 -44 191 -137
262 -173 79 -39 238 -104 273 -110 13 -3 25 -5 27 -7 1 -1 7 -3 12 -4 6 -1 11
-3 13 -5 1 -1 10 -3 21 -5 10 -2 39 -9 65 -15 206 -48 315 -58 621 -55 151 2
286 5 300 8 31 6 105 17 145 22 17 2 30 4 30 5 0 1 13 4 28 6 49 8 270 73 322
95 93 39 200 92 253 126 29 18 56 33 61 33 5 0 11 3 13 8 1 4 30 27 63 51 67
50 183 163 237 231 150 188 250 449 273 708 2 29 7 57 10 62 3 5 1 11 -5 15
-6 4 -7 12 -1 24 6 10 6 23 1 31 -5 8 -5 21 0 31 5 9 7 18 5 20 -2 3 -7 31
-10 64 -16 154 -39 262 -74 350 -130 322 -384 546 -806 710 -112 44 -339 117
-481 155 -89 24 -541 140 -564 145 -8 2 -28 8 -43 14 -15 6 -42 13 -59 16 -17
3 -36 9 -42 13 -6 3 -18 7 -26 9 -8 1 -65 27 -127 58 -144 74 -211 139 -249
240 -13 34 -11 138 3 184 21 71 109 173 176 203 15 7 27 15 27 19 0 13 177 79
229 85 14 1 53 5 86 9 80 9 183 9 274 0 180 -17 267 -53 372 -155 51 -49 119
-135 119 -149 0 -5 4 -11 8 -13 5 -1 33 -48 62 -103 56 -105 109 -191 147
-238 l22 -27 -3 33 c-2 19 -6 39 -10 45 -3 6 -2 14 4 17 8 5 8 11 1 19 -6 7
-8 15 -5 18 3 4 8 21 11 40 3 18 6 38 7 43 4 21 41 91 58 109 9 10 15 23 12
28 -3 4 2 8 11 8 9 0 13 5 10 10 -3 6 1 10 9 10 9 0 16 4 16 9 0 12 90 68 115
73 11 2 23 7 26 11 3 5 25 9 47 10 23 1 42 6 42 10 0 5 4 5 10 2 5 -3 38 -8
71 -10 34 -3 67 -10 75 -16 8 -6 14 -8 14 -5 0 13 96 -50 136 -89 44 -43 84
-106 85 -133 0 -11 4 -9 11 8 11 27 14 167 3 215 -3 17 -9 43 -12 60 -6 36
-41 131 -74 200 -20 42 -101 169 -119 185 -3 3 -25 28 -50 55 -176 196 -434
345 -730 424 -107 28 -240 51 -320 55 -25 2 -51 5 -56 8 -9 6 -410 8 -416 3z"/>
<path d="M3700 3553 c-68 -17 -110 -43 -159 -99 -127 -145 -83 -373 91 -470
47 -26 63 -29 138 -29 98 0 153 21 218 84 64 62 87 121 87 221 0 75 -4 91 -30
138 -69 127 -209 190 -345 155z"/>
<path d="M1101 2048 c-132 -23 -237 -136 -254 -272 -15 -121 59 -247 183 -312
55 -29 190 -26 253 5 62 30 118 87 149 148 31 63 33 199 4 253 -70 132 -201
201 -335 178z"/>
</g>
</svg>
